<?xml version="1.0" encoding="utf-8"?>
<!-- Svg Vector Icons : http://www.onlinewebfonts.com/icon -->
<!DOCTYPE svg PUBLIC "-//W3C//DTD SVG 1.1//EN" "http://www.w3.org/Graphics/SVG/1.1/DTD/svg11.dtd">
<svg version="1.1" xmlns="http://www.w3.org/2000/svg" xmlns:xlink="http://www.w3.org/1999/xlink" x="0px" y="0px" viewBox="0 0 1000 1000" enable-background="new 0 0 1000 1000" xml:space="preserve">
<metadata> Svg Vector Icons : http://www.onlinewebfonts.com/icon </metadata>
<g><g transform="translate(0.000000,511.000000) scale(0.100000,-0.100000)"><path d="M4540.9,4997.6C2369.6,4807.8,547.5,3129.9,160.3,954.8C80.6,518.2,80.6-301.7,156.5-738.3c318.9-1780.4,1586.8-3245.6,3306.4-3822.6c497.3-167,949-235.4,1537.4-235.4c588.4,0,1043.9,68.3,1533.6,235.4c1715.8,573.2,2995.1,2046.1,3306.3,3811.3c79.7,447.9,79.7,1264.1,0,1708.2c-174.6,979.4-656.7,1901.8-1370.4,2615.5C7429.7,4614.2,6025.2,5122.9,4540.9,4997.6z M4476.4,4253.6c87.3-79.7,91.1-284.7,3.8-360.6c-38-30.4-208.8-91.1-383.4-136.6c-1385.6-360.6-2387.7-1362.8-2748.4-2748.4C1253.5,643.5,1196.6,560,1041,560c-155.6,0-254.3,98.7-254.3,246.7c0,201.2,178.4,770.6,364.4,1154c520,1093.3,1499.4,1920.8,2672.4,2258.7C4206.9,4329.5,4381.5,4340.9,4476.4,4253.6z M4692.8,3057.8c45.6-75.9,49.4-129.1,19-208.8c-30.4-94.9-83.5-121.5-432.7-239.1c-220.2-72.1-478.3-178.4-573.2-235.4C3087,2010.1,2684.7,1486.2,2483.5,787.8c-113.9-391-216.4-497.3-402.4-417.6c-151.8,60.7-182.2,178.4-121.5,463.1c129.1,630.1,584.6,1328.6,1146.4,1761.4c398.6,307.5,1081.9,592.2,1381.8,573.2C4605.5,3160.3,4647.2,3137.5,4692.8,3057.8z M5455.8,2036.7c334-75.9,652.9-261.9,933.9-542.8c402.4-406.2,584.6-835.1,584.6-1389.4c0-554.3-182.2-987-584.6-1389.4c-402.4-402.4-835.1-584.6-1389.4-584.6c-554.2,0-987,182.2-1389.4,584.6c-622.5,626.3-763,1488.1-372,2296.6c212.6,436.5,755.4,873.1,1256.5,1009.8C4715.5,2082.2,5224.2,2089.8,5455.8,2036.7z M7942.2-168.9c125.3-56.9,155.6-186,102.5-447.9c-98.7-466.9-398.6-1024.9-759.2-1412.1C6830-2518.6,6127.7-2902,5584.9-2959c-174.6-19-201.2-11.4-258.1,68.3c-148.1,216.4-38,375.8,334,470.7c527.6,136.6,1043.9,470.7,1370.4,884.5c216.4,265.7,451.7,747.8,516.3,1043.9c34.2,151.8,75.9,243,140.5,296.1C7797.9-111.9,7813.1-108.1,7942.2-168.9z M9145.5-415.6c94.9-83.5,87.3-243-26.6-641.6c-337.9-1173-1138.8-2137.2-2232.1-2672.4c-398.6-193.6-971.8-379.6-1176.8-379.6c-155.6,0-254.3,98.7-254.3,246.7c0,167,83.5,223.9,440.4,315.1c1374.2,345.4,2410.5,1381.8,2755.9,2755.9c41.7,167,102.5,337.9,136.6,375.8C8860.8-332.1,9054.4-332.1,9145.5-415.6z" fill="antiquewhite"/><path d="M4696.6,1531.8c-588.4-125.3-1028.7-588.4-1138.8-1192c-110.1-607.4,220.2-1252.7,785.8-1541.2c702.3-353,1571.6-79.7,1939.8,611.2C6754,298.1,6237.8,1361,5247,1543.2C4985.1,1592.5,4966.1,1592.5,4696.6,1531.8z M5209,313.3c189.8-186,56.9-512.5-208.8-512.5c-72.1,0-151.8,34.1-208.8,94.9c-189.8,186-56.9,512.5,208.8,512.5C5072.4,408.2,5152.1,374,5209,313.3z" fill="antiquewhite"/></g></g>
</svg>